<?xml version="1.0" encoding="utf-8"?>
<!-- Generator: Adobe Illustrator 18.1.1, SVG Export Plug-In . SVG Version: 6.00 Build 0)  -->
<!DOCTYPE svg PUBLIC "-//W3C//DTD SVG 1.0//EN" "http://www.w3.org/TR/2001/REC-SVG-20010904/DTD/svg10.dtd">
<svg version="1.0" id="Layer_1" xmlns="http://www.w3.org/2000/svg" xmlns:xlink="http://www.w3.org/1999/xlink" x="0px" y="0px"
	 viewBox="0 0 250 85" enable-background="new 0 0 250 85" xml:space="preserve">
<path fill="#F2F2F2" d="M78.9,35.7l-2.1-7c-0.6-2-1.2-4.4-1.7-6.4H75c-0.5,2-1,4.5-1.5,6.4l-2,7H78.9z M70.5,41.4l-2.4,8.5h-7.8
	l10.1-33.1h9.8l10.3,33.1h-8.1L80,41.4H70.5z"/>
<path fill="#F2F2F2" d="M101.4,39.5c0,0.6,0,1.1,0.1,1.6c0.5,2,2.2,3.5,4.4,3.5c3.2,0,5.2-2.7,5.2-6.8c0-3.8-1.7-6.7-5.1-6.7
	c-2.1,0-4,1.6-4.5,3.8c-0.1,0.4-0.1,0.9-0.1,1.3V39.5z M94,33.9c0-3.1-0.1-5.9-0.2-8.1h6.5l0.3,3.3h0.1c1.8-2.6,4.5-3.9,8-3.9
	c5.3,0,10,4.6,10,12.2c0,8.8-5.6,12.9-10.9,12.9c-2.9,0-5.2-1.2-6.2-2.8h-0.1v12H94V33.9z"/>
<path fill="#F2F2F2" d="M130.4,39.5c0,0.6,0,1.1,0.1,1.6c0.5,2,2.2,3.5,4.4,3.5c3.2,0,5.2-2.7,5.2-6.8c0-3.8-1.7-6.7-5.1-6.7
	c-2.1,0-4,1.6-4.5,3.8c-0.1,0.4-0.1,0.9-0.1,1.3V39.5z M122.9,33.9c0-3.1-0.1-5.9-0.2-8.1h6.5l0.3,3.3h0.1c1.8-2.6,4.5-3.9,8-3.9
	c5.3,0,10,4.6,10,12.2c0,8.8-5.6,12.9-10.9,12.9c-2.9,0-5.2-1.2-6.2-2.8h-0.1v12h-7.5V33.9z"/>
<path fill="#F2F2F2" d="M152.5,49.9V16.7h4.7l10.6,16.8c2.5,3.9,4.4,7.4,6,10.8l0.1,0c-0.4-4.4-0.5-8.5-0.5-13.6V16.7h4v33.1h-4.3
	L162.6,33c-2.3-3.7-4.5-7.5-6.2-11.1l-0.1,0c0.2,4.2,0.3,8.2,0.3,13.7v14.2H152.5z"/>
<path fill="#F2F2F2" d="M199.3,35.6c0-2.8-1.1-7-6-7c-4.4,0-6.3,4-6.6,7H199.3z M186.7,38.7c0.1,5.9,3.8,8.3,8.2,8.3
	c3.1,0,5-0.5,6.6-1.2l0.7,3.1c-1.5,0.7-4.1,1.5-7.9,1.5c-7.3,0-11.7-4.8-11.7-12c0-7.2,4.2-12.8,11.2-12.8c7.8,0,9.8,6.8,9.8,11.2
	c0,0.9-0.1,1.6-0.1,2H186.7z"/>
<path fill="#F2F2F2" d="M213.6,19.2v6.8h6.2v3.3h-6.2v12.8c0,3,0.8,4.6,3.2,4.6c1.1,0,2-0.1,2.5-0.3l0.2,3.2
	c-0.8,0.3-2.2,0.6-3.8,0.6c-2,0-3.6-0.6-4.7-1.8c-1.2-1.3-1.7-3.4-1.7-6.2v-13h-3.7v-3.3h3.7v-5.7L213.6,19.2z"/>
<path fill="#F2F2F2" d="M236.7,37.7c-4.7-0.1-10.1,0.7-10.1,5.4c0,2.8,1.9,4.1,4.1,4.1c3.1,0,5.1-2,5.8-4c0.1-0.4,0.2-0.9,0.2-1.4
	V37.7z M237.4,49.9l-0.3-3h-0.1c-1.3,1.9-3.9,3.5-7.3,3.5c-4.8,0-7.3-3.4-7.3-6.8c0-5.8,5.1-8.9,14.3-8.9v-0.5c0-2-0.5-5.5-5.4-5.5
	c-2.2,0-4.5,0.7-6.2,1.8l-1-2.9c2-1.3,4.8-2.1,7.8-2.1c7.3,0,9.1,5,9.1,9.7v8.9c0,2.1,0.1,4.1,0.4,5.7H237.4z"/>
<path fill="#F2F2F2" d="M243.5,22.5h0.2c0.3,0,0.5-0.1,0.5-0.3c0-0.2-0.1-0.3-0.5-0.3c-0.1,0-0.2,0-0.3,0V22.5z M243.5,23.7h-0.5
	v-2.2c0.2,0,0.5-0.1,0.9-0.1c0.4,0,0.6,0.1,0.8,0.2c0.1,0.1,0.2,0.3,0.2,0.5c0,0.2-0.2,0.4-0.5,0.5v0c0.2,0.1,0.3,0.2,0.4,0.5
	c0.1,0.3,0.1,0.5,0.2,0.6h-0.6c-0.1-0.1-0.1-0.3-0.2-0.5c0-0.2-0.2-0.4-0.5-0.4h-0.2V23.7z M242.1,22.6c0,1,0.7,1.8,1.7,1.8
	c1,0,1.7-0.8,1.7-1.8c0-1-0.7-1.8-1.7-1.8C242.8,20.8,242.1,21.6,242.1,22.6 M246.1,22.6c0,1.3-1,2.3-2.3,2.3c-1.3,0-2.3-1-2.3-2.3
	c0-1.2,1-2.2,2.3-2.2C245.1,20.3,246.1,21.3,246.1,22.6"/>
<polygon fill="#E02126" points="26.3,27.1 35,32.1 35,32.1 43.6,27.1 39.3,24.6 35,22.1 35,22.1 30.7,24.6 26.3,27.1 "/>
<polygon fill="#CC3836" points="35,32.1 35,42.1 39.3,39.6 43.6,37.1 43.6,37.1 43.6,32.1 43.6,27.1 35,32.1 "/>
<polygon fill="#BAC73D" points="9.1,27.2 17.7,32.2 17.7,32.2 26.4,27.2 22.1,24.7 17.7,22.2 17.7,22.3 13.4,24.7 9.1,27.2 "/>
<polygon fill="#FFE000" points="17.7,32.1 26.4,37.1 26.4,37.1 35,32.1 30.7,29.6 26.4,27.1 26.3,27.1 22,29.6 17.7,32.1 "/>
<polygon fill="#FFCF00" points="26.3,37.1 17.7,32.1 17.7,37.1 17.7,42.1 17.7,42.1 22,44.6 26.4,47.1 26.4,47.1 26.4,37.1 "/>
<polygon fill="#BAC73D" points="9.1,27.1 17.7,32.1 17.7,32.1 26.4,27.1 22,24.6 17.7,22.1 17.7,22.1 13.4,24.6 9.1,27.1 "/>
<polygon fill="#A8BA4D" points="17.7,32.1 9.1,27.1 9.1,32.1 9.1,37.1 9.1,37.1 13.4,39.6 17.7,42.1 17.7,42.1 17.7,32.1 "/>
<polygon fill="#E5BF45" points="26.4,37.1 26.4,47.1 30.7,44.6 35,42.1 35,42.1 35,37.1 35,32.1 26.4,37.1 "/>
<polygon fill="#4FC2CF" points="26.3,47.1 17.7,42.1 17.7,47.1 17.7,52.1 17.7,52.1 22,54.6 26.4,57 26.4,57 26.4,47.1 "/>
<polygon fill="#5EC4C2" points="26.4,47.1 26.4,57 30.7,54.6 35,52.1 35,52.1 35,47.1 35,42.1 26.4,47.1 "/>
<polygon fill="#59C7D6" points="21.1,13.4 26.4,16.5 26.4,16.4 31.6,13.4 29,11.9 26.4,10.4 26.4,10.4 23.7,11.9 21.1,13.4 "/>
<polygon fill="#26BDBF" points="26.4,16.5 21.1,13.4 21.1,16.5 21.1,19.5 21.1,19.5 23.7,21 26.4,22.5 26.4,22.5 26.4,16.5 "/>
<polygon fill="#2BA3BA" points="26.4,16.5 26.4,22.5 29,21 31.6,19.5 31.6,19.5 31.6,16.5 31.6,13.4 26.4,16.4 "/>
<polygon fill="#CC2E2E" points="8.5,53.4 8.5,47.3 8.5,47.3 3.3,44.3 3.3,47.3 3.3,50.4 3.3,50.4 5.9,51.9 8.5,53.4 "/>
<polygon fill="#AD2B2E" points="8.5,47.3 8.5,53.4 11.2,51.9 13.8,50.4 13.8,50.4 13.8,47.3 13.8,44.3 13.8,44.3 8.5,47.3 "/>
<polygon fill="#E82929" points="8.5,47.3 13.8,44.3 11.2,42.7 8.5,41.2 8.5,41.2 5.9,42.7 3.3,44.3 8.5,47.3 "/>
<polygon fill="#829E5C" points="49.5,44.3 44.2,47.3 44.2,47.3 44.2,53.4 46.8,51.9 49.5,50.4 49.5,50.3 49.5,47.3 49.5,44.3 "/>
<polygon fill="#BFC730" points="44.2,47.3 49.5,44.3 46.8,42.7 44.2,41.2 44.2,41.2 41.5,42.7 38.9,44.3 38.9,44.3 44.2,47.3 "/>
<polygon fill="#9CB04A" points="44.2,47.3 38.9,44.3 38.9,47.3 38.9,50.3 38.9,50.4 41.5,51.9 44.2,53.4 44.2,47.3 "/>
<path fill="#F2F2F2" d="M60.3,68.9h1.5c1.3,0,2.2-0.2,2.7-0.6c0.6-0.4,0.8-1.1,0.8-2c0-0.9-0.3-1.5-0.8-1.9s-1.4-0.6-2.5-0.6h-1.9
	V68.9z M66.3,66.3c0,1.1-0.4,1.9-1.1,2.5c-0.7,0.6-1.8,0.9-3.1,0.9h-1.7v4.6h-0.8V63h2.7C64.9,63,66.3,64.1,66.3,66.3"/>
<path fill="#F2F2F2" d="M71.6,66.4c-0.8,0-1.4,0.3-1.9,0.8c-0.5,0.5-0.8,1.3-0.8,2.3H74c0-1-0.2-1.7-0.6-2.3
	C73,66.7,72.4,66.4,71.6,66.4 M71.9,74.4c-1.2,0-2.2-0.4-2.8-1.1c-0.7-0.7-1-1.8-1-3.1c0-1.3,0.3-2.4,1-3.2c0.7-0.8,1.5-1.2,2.6-1.2
	c1,0,1.8,0.3,2.3,1c0.6,0.7,0.8,1.6,0.8,2.8v0.6h-6c0,1.1,0.3,2,0.8,2.6c0.5,0.6,1.3,0.9,2.2,0.9c0.5,0,0.9,0,1.3-0.1
	c0.4-0.1,0.8-0.2,1.4-0.4v0.7c-0.5,0.2-0.9,0.3-1.3,0.4C72.8,74.4,72.4,74.4,71.9,74.4"/>
<path fill="#F2F2F2" d="M80.4,65.8c0.4,0,0.7,0,1.1,0.1l-0.1,0.7c-0.3-0.1-0.7-0.1-1.1-0.1c-0.7,0-1.3,0.3-1.7,0.9
	c-0.5,0.6-0.7,1.4-0.7,2.3v4.6h-0.8v-8.3h0.6l0.1,1.5h0.1c0.3-0.6,0.7-1,1.1-1.3C79.4,65.9,79.8,65.8,80.4,65.8"/>
<path fill="#F2F2F2" d="M86.3,66.6h-2v7.7h-0.8v-7.7H82v-0.4l1.5-0.3v-0.6c0-1,0.2-1.8,0.6-2.2c0.4-0.5,1-0.7,1.8-0.7
	c0.5,0,0.9,0.1,1.4,0.2l-0.2,0.7c-0.4-0.1-0.8-0.2-1.2-0.2c-0.6,0-1,0.2-1.3,0.5c-0.2,0.4-0.4,0.9-0.4,1.7v0.8h2V66.6z"/>
<path fill="#F2F2F2" d="M88.2,70.1c0,1.1,0.3,2,0.8,2.7c0.5,0.6,1.2,1,2.1,1c0.9,0,1.6-0.3,2.1-1c0.5-0.6,0.8-1.5,0.8-2.7
	c0-1.1-0.3-2-0.8-2.7c-0.5-0.6-1.2-0.9-2.1-0.9c-0.9,0-1.6,0.3-2.1,0.9C88.5,68,88.2,68.9,88.2,70.1 M94.8,70.1c0,1.4-0.3,2.4-1,3.2
	c-0.7,0.8-1.6,1.1-2.7,1.1c-0.7,0-1.4-0.2-1.9-0.5c-0.6-0.4-1-0.9-1.3-1.5c-0.3-0.7-0.4-1.4-0.4-2.3c0-1.4,0.3-2.4,1-3.2
	c0.7-0.8,1.6-1.1,2.7-1.1c1.1,0,2,0.4,2.7,1.2S94.8,68.7,94.8,70.1"/>
<path fill="#F2F2F2" d="M100.4,65.8c0.4,0,0.7,0,1.1,0.1l-0.1,0.7c-0.3-0.1-0.7-0.1-1.1-0.1c-0.7,0-1.3,0.3-1.7,0.9
	c-0.5,0.6-0.7,1.4-0.7,2.3v4.6h-0.8v-8.3h0.6l0.1,1.5h0.1c0.3-0.6,0.7-1,1.1-1.3C99.4,65.9,99.8,65.8,100.4,65.8"/>
<path fill="#F2F2F2" d="M113.6,74.2v-5.5c0-0.8-0.2-1.4-0.5-1.8c-0.3-0.4-0.8-0.6-1.5-0.6c-0.9,0-1.5,0.2-1.9,0.7
	c-0.4,0.5-0.6,1.2-0.6,2.2v4.9h-0.8v-5.7c0-1.4-0.6-2.1-1.9-2.1c-0.9,0-1.5,0.3-1.9,0.8c-0.4,0.5-0.6,1.3-0.6,2.4v4.6h-0.8v-8.3h0.6
	l0.2,1.1h0c0.2-0.4,0.6-0.7,1-1c0.4-0.2,0.9-0.3,1.4-0.3c1.3,0,2.2,0.5,2.5,1.5h0c0.3-0.5,0.6-0.8,1.1-1.1c0.5-0.3,1-0.4,1.6-0.4
	c0.9,0,1.6,0.2,2,0.7c0.5,0.5,0.7,1.3,0.7,2.3v5.4H113.6z"/>
<path fill="#F2F2F2" d="M119,73.7c0.9,0,1.6-0.3,2.1-0.8c0.5-0.5,0.8-1.2,0.8-2.1V70l-1.5,0.1c-1.2,0.1-2,0.2-2.5,0.5
	c-0.5,0.3-0.7,0.8-0.7,1.4c0,0.5,0.2,0.9,0.5,1.2C118,73.6,118.5,73.7,119,73.7 M122.1,74.2l-0.2-1.3h-0.1c-0.4,0.5-0.8,0.9-1.3,1.1
	c-0.4,0.2-1,0.3-1.6,0.3c-0.8,0-1.5-0.2-1.9-0.6c-0.5-0.4-0.7-1-0.7-1.7c0-0.8,0.3-1.4,1-1.9c0.7-0.4,1.7-0.7,2.9-0.7l1.6,0v-0.6
	c0-0.8-0.2-1.4-0.5-1.8c-0.3-0.4-0.8-0.6-1.6-0.6c-0.8,0-1.6,0.2-2.4,0.6l-0.3-0.7c0.9-0.4,1.8-0.6,2.7-0.6c0.9,0,1.6,0.2,2,0.7
	c0.5,0.5,0.7,1.2,0.7,2.2v5.5H122.1z"/>
<path fill="#F2F2F2" d="M131.2,74.2v-5.4c0-0.8-0.2-1.4-0.5-1.8c-0.4-0.4-0.9-0.6-1.6-0.6c-1,0-1.7,0.3-2.2,0.8
	c-0.5,0.5-0.7,1.3-0.7,2.4v4.6h-0.8v-8.3h0.6l0.1,1.1h0c0.5-0.9,1.5-1.3,2.9-1.3c1.9,0,2.8,1,2.8,3v5.4H131.2z"/>
<path fill="#F2F2F2" d="M137.9,74.4c-1.2,0-2.1-0.4-2.8-1.1c-0.7-0.8-1-1.8-1-3.1c0-1.4,0.3-2.5,1-3.2c0.7-0.8,1.7-1.2,2.9-1.2
	c0.7,0,1.4,0.1,2.1,0.4l-0.2,0.7c-0.7-0.2-1.3-0.4-1.9-0.4c-1,0-1.8,0.3-2.3,0.9c-0.5,0.6-0.8,1.5-0.8,2.7c0,1.1,0.3,2,0.8,2.6
	c0.5,0.6,1.3,1,2.2,1c0.8,0,1.5-0.1,2.1-0.4V74C139.5,74.3,138.8,74.4,137.9,74.4"/>
<path fill="#F2F2F2" d="M145.2,66.4c-0.8,0-1.4,0.3-1.9,0.8c-0.5,0.5-0.8,1.3-0.8,2.3h5.1c0-1-0.2-1.7-0.6-2.3
	C146.5,66.7,145.9,66.4,145.2,66.4 M145.4,74.4c-1.2,0-2.2-0.4-2.8-1.1c-0.7-0.7-1-1.8-1-3.1c0-1.3,0.3-2.4,1-3.2
	c0.7-0.8,1.5-1.2,2.6-1.2c1,0,1.8,0.3,2.3,1c0.6,0.7,0.8,1.6,0.8,2.8v0.6h-6c0,1.1,0.3,2,0.8,2.6c0.5,0.6,1.3,0.9,2.2,0.9
	c0.5,0,0.9,0,1.3-0.1c0.4-0.1,0.8-0.2,1.4-0.4v0.7c-0.5,0.2-0.9,0.3-1.3,0.4C146.3,74.4,145.9,74.4,145.4,74.4"/>
<path fill="#F2F2F2" d="M155.5,74.2h-0.8v-8.3h0.8V74.2z M154.6,63.6c0-0.5,0.2-0.7,0.5-0.7c0.2,0,0.3,0.1,0.4,0.2
	c0.1,0.1,0.1,0.3,0.1,0.5c0,0.2,0,0.4-0.1,0.5c-0.1,0.1-0.2,0.2-0.4,0.2C154.8,64.3,154.6,64.1,154.6,63.6"/>
<path fill="#F2F2F2" d="M164.1,74.2v-5.4c0-0.8-0.2-1.4-0.5-1.8c-0.4-0.4-0.9-0.6-1.6-0.6c-1,0-1.7,0.3-2.2,0.8
	c-0.5,0.5-0.7,1.3-0.7,2.4v4.6h-0.8v-8.3h0.6l0.1,1.1h0c0.5-0.9,1.5-1.3,2.9-1.3c1.9,0,2.8,1,2.8,3v5.4H164.1z"/>
<path fill="#F2F2F2" d="M172.6,68.9h1.5c1.3,0,2.2-0.2,2.7-0.6c0.6-0.4,0.8-1.1,0.8-2c0-0.9-0.3-1.5-0.8-1.9
	c-0.5-0.4-1.4-0.6-2.5-0.6h-1.9V68.9z M178.5,66.3c0,1.1-0.4,1.9-1.1,2.5c-0.7,0.6-1.8,0.9-3.1,0.9h-1.7v4.6h-0.8V63h2.7
	C177.2,63,178.5,64.1,178.5,66.3"/>
<path fill="#F2F2F2" d="M184.1,65.8c0.4,0,0.7,0,1.1,0.1l-0.1,0.7c-0.3-0.1-0.7-0.1-1.1-0.1c-0.7,0-1.3,0.3-1.7,0.9
	c-0.5,0.6-0.7,1.4-0.7,2.3v4.6h-0.8v-8.3h0.6l0.1,1.5h0.1c0.3-0.6,0.7-1,1.1-1.3C183,65.9,183.5,65.8,184.1,65.8"/>
<path fill="#F2F2F2" d="M187.2,70.1c0,1.1,0.3,2,0.8,2.7c0.5,0.6,1.2,1,2.1,1c0.9,0,1.6-0.3,2.1-1c0.5-0.6,0.8-1.5,0.8-2.7
	c0-1.1-0.3-2-0.8-2.7c-0.5-0.6-1.2-0.9-2.1-0.9c-0.9,0-1.6,0.3-2.1,0.9C187.4,68,187.2,68.9,187.2,70.1 M193.8,70.1
	c0,1.4-0.3,2.4-1,3.2c-0.7,0.8-1.6,1.1-2.7,1.1c-0.7,0-1.4-0.2-1.9-0.5c-0.6-0.4-1-0.9-1.3-1.5c-0.3-0.7-0.4-1.4-0.4-2.3
	c0-1.4,0.3-2.4,1-3.2c0.7-0.8,1.6-1.1,2.7-1.1c1.1,0,2,0.4,2.7,1.2C193.4,67.7,193.8,68.7,193.8,70.1"/>
<path fill="#F2F2F2" d="M199.1,66.4c-0.9,0-1.6,0.3-2,1c-0.5,0.6-0.7,1.6-0.7,2.8c0,2.4,0.9,3.5,2.7,3.5c0.9,0,1.6-0.3,2.1-0.8
	c0.4-0.5,0.7-1.4,0.7-2.7v-0.1c0-1.3-0.2-2.2-0.6-2.8C200.8,66.7,200.1,66.4,199.1,66.4 M199.1,65.8c0.6,0,1.1,0.1,1.6,0.3
	c0.4,0.2,0.8,0.6,1.2,1.1h0c0-0.6,0-1.3,0-1.9v-3h0.8v11.9h-0.5l-0.2-1.3h-0.1c-0.6,0.9-1.5,1.4-2.7,1.4c-1.1,0-2-0.4-2.6-1.1
	c-0.6-0.7-0.9-1.8-0.9-3.1c0-1.4,0.3-2.5,0.9-3.3C197.1,66.1,198,65.8,199.1,65.8"/>
<path fill="#F2F2F2" d="M206.1,65.9v5.4c0,0.8,0.2,1.4,0.5,1.8c0.4,0.4,0.9,0.6,1.6,0.6c1,0,1.7-0.2,2.2-0.8
	c0.5-0.5,0.7-1.3,0.7-2.4v-4.6h0.8v8.3h-0.6l-0.1-1.1h0c-0.5,0.9-1.5,1.3-2.9,1.3c-1.9,0-2.8-1-2.8-3v-5.4H206.1z"/>
<path fill="#F2F2F2" d="M218,74.4c-1.2,0-2.1-0.4-2.8-1.1c-0.7-0.8-1-1.8-1-3.1c0-1.4,0.3-2.5,1-3.2c0.7-0.8,1.7-1.2,2.9-1.2
	c0.7,0,1.4,0.1,2.1,0.4l-0.2,0.7c-0.7-0.2-1.3-0.4-1.9-0.4c-1,0-1.8,0.3-2.3,0.9c-0.5,0.6-0.8,1.5-0.8,2.7c0,1.1,0.3,2,0.8,2.6
	c0.5,0.6,1.3,1,2.2,1c0.8,0,1.5-0.1,2.1-0.4V74C219.5,74.3,218.8,74.4,218,74.4"/>
<path fill="#F2F2F2" d="M224.3,73.7c0.5,0,0.9,0,1.3-0.1v0.6c-0.4,0.1-0.8,0.2-1.3,0.2c-0.7,0-1.3-0.2-1.6-0.6
	c-0.3-0.4-0.5-1-0.5-1.9v-5.4h-1.2v-0.4l1.2-0.3l0.4-1.9h0.4v2h2.4v0.7h-2.4v5.3c0,0.6,0.1,1.1,0.3,1.4
	C223.5,73.6,223.8,73.7,224.3,73.7"/>
<path fill="#F2F2F2" d="M228.1,74.2h-0.8v-8.3h0.8V74.2z M227.2,63.6c0-0.5,0.2-0.7,0.5-0.7c0.2,0,0.3,0.1,0.4,0.2
	c0.1,0.1,0.1,0.3,0.1,0.5c0,0.2,0,0.4-0.1,0.5c-0.1,0.1-0.2,0.2-0.4,0.2C227.4,64.3,227.2,64.1,227.2,63.6"/>
<path fill="#F2F2F2" d="M231.2,70.1c0,1.1,0.3,2,0.8,2.7c0.5,0.6,1.2,1,2.1,1c0.9,0,1.6-0.3,2.1-1c0.5-0.6,0.8-1.5,0.8-2.7
	c0-1.1-0.3-2-0.8-2.7c-0.5-0.6-1.2-0.9-2.1-0.9c-0.9,0-1.6,0.3-2.1,0.9C231.5,68,231.2,68.9,231.2,70.1 M237.8,70.1
	c0,1.4-0.3,2.4-1,3.2c-0.7,0.8-1.6,1.1-2.7,1.1c-0.7,0-1.4-0.2-1.9-0.5c-0.6-0.4-1-0.9-1.3-1.5c-0.3-0.7-0.4-1.4-0.4-2.3
	c0-1.4,0.3-2.4,1-3.2c0.7-0.8,1.6-1.1,2.7-1.1c1.1,0,2,0.4,2.7,1.2C237.5,67.7,237.8,68.7,237.8,70.1"/>
<path fill="#F2F2F2" d="M245.9,74.2v-5.4c0-0.8-0.2-1.4-0.5-1.8c-0.4-0.4-0.9-0.6-1.6-0.6c-1,0-1.7,0.3-2.2,0.8
	c-0.5,0.5-0.7,1.3-0.7,2.4v4.6h-0.8v-8.3h0.6l0.1,1.1h0c0.5-0.9,1.5-1.3,2.9-1.3c1.9,0,2.8,1,2.8,3v5.4H245.9z"/>
</svg>
